<svg class="bob" font-family="arial" font-size="14" height="528" width="992" xmlns="http://www.w3.org/2000/svg">
<defs>
<marker id="triangle" markerHeight="10" markerUnits="strokeWidth" markerWidth="10" orient="auto" refX="15" refY="10" viewBox="0 0 50 20">
<path d="M 0 0 L 30 10 L 0 20 z"/>
</marker>
</defs>
<style>

    line, path {
      stroke: black;
      stroke-width: 2;
      stroke-opacity: 1;
      fill-opacity: 1;
      stroke-linecap: round;
      stroke-linejoin: miter;
    }
    circle {
      stroke: black;
      stroke-width: 2;
      stroke-opacity: 1;
      fill-opacity: 1;
      stroke-linecap: round;
      stroke-linejoin: miter;
    }
    circle.solid {
      fill:black;
    }
    circle.open {
      fill:transparent;
    }
    tspan.head{
        fill: none;
        stroke: none;
    }
    
</style>
<path d=" M 4 8 L 8 8 M 4 8 L 4 16 M 8 8 L 16 8 M 8 8 L 16 8 L 24 8 M 16 8 L 24 8 L 32 8 M 24 8 L 32 8 L 40 8 M 32 8 L 40 8 L 48 8 M 40 8 L 48 8 L 56 8 M 48 8 L 56 8 L 64 8 M 56 8 L 64 8 L 72 8 M 64 8 L 72 8 M 76 8 L 72 8 M 76 8 L 76 16 M 4 16 L 4 32 M 4 16 L 4 32 M 76 24 L 76 16 M 76 24 L 76 32 M 4 40 L 4 32 M 4 40 L 8 40 L 16 40 M 8 40 L 16 40 M 20 40 L 16 40 M 20 40 L 24 40 M 20 40 L 20 48 M 24 40 L 32 40 M 24 40 L 32 40 L 40 40 M 32 40 L 40 40 L 48 40 M 40 40 L 48 40 L 56 40 M 48 40 L 56 40 L 64 40 M 56 40 L 64 40 L 72 40 M 64 40 L 72 40 M 76 40 L 76 32 M 76 40 L 72 40 M 172 40 L 176 40 M 172 40 L 172 48 M 176 40 L 184 40 M 176 40 L 184 40 L 192 40 M 184 40 L 192 40 L 200 40 M 192 40 L 200 40 L 208 40 M 200 40 L 208 40 L 216 40 M 208 40 L 216 40 L 224 40 M 216 40 L 224 40 M 228 40 L 224 40 M 228 40 L 228 48 M 324 40 L 328 40 M 324 40 L 324 48 M 328 40 L 336 40 M 328 40 L 336 40 L 344 40 M 336 40 L 344 40 L 352 40 M 344 40 L 352 40 L 360 40 M 352 40 L 360 40 L 368 40 M 360 40 L 368 40 L 376 40 M 368 40 L 376 40 L 384 40 M 376 40 L 384 40 L 392 40 M 384 40 L 392 40 L 400 40 M 392 40 L 400 40 L 408 40 M 400 40 L 408 40 L 416 40 M 408 40 L 416 40 M 420 40 L 416 40 M 420 40 L 420 48 M 460 40 L 464 40 M 460 40 L 460 48 M 464 40 L 472 40 M 464 40 L 472 40 L 480 40 M 472 40 L 480 40 L 488 40 M 480 40 L 488 40 L 496 40 M 488 40 L 496 40 L 504 40 M 496 40 L 504 40 L 512 40 M 504 40 L 512 40 L 520 40 M 512 40 L 520 40 M 524 40 L 520 40 M 524 40 L 524 48 M 132 56 L 136 56 M 132 56 L 132 64 M 136 56 L 144 56 M 136 56 L 144 56 L 152 56 M 144 56 L 152 56 M 172 48 L 172 64 M 172 48 L 172 64 M 228 56 L 228 48 M 228 56 L 232 56 M 228 56 L 228 64 M 232 56 L 240 56 M 232 56 L 240 56 L 248 56 M 240 56 L 248 56 L 256 56 M 248 56 L 256 56 L 264 56 M 256 56 L 264 56 L 272 56 M 264 56 L 272 56 L 280 56 M 272 56 L 280 56 L 288 56 M 280 56 L 288 56 L 296 56 M 288 56 L 296 56 M 300 56 L 296 56 M 300 56 L 304 56 M 300 56 L 300 64 M 324 48 L 324 64 M 324 48 L 324 64 M 420 56 L 420 48 M 420 56 L 424 56 M 420 56 L 420 64 M 424 56 L 432 56 M 424 56 L 432 56 L 440 56 M 432 56 L 440 56 M 460 48 L 460 64 M 460 48 L 460 64 M 524 48 L 524 64 M 524 48 L 524 64 M 132 64 L 132 80 M 132 64 L 132 80 M 172 72 L 172 64 M 172 72 L 176 72 L 184 72 M 176 72 L 184 72 L 192 72 M 184 72 L 192 72 L 200 72 M 192 72 L 200 72 L 208 72 M 200 72 L 208 72 L 216 72 M 208 72 L 216 72 L 224 72 M 216 72 L 224 72 M 228 72 L 228 64 M 228 72 L 224 72 M 300 64 L 300 80 M 300 64 L 300 80 M 324 72 L 324 64 M 324 72 L 328 72 L 336 72 M 328 72 L 336 72 L 344 72 M 336 72 L 344 72 L 352 72 M 344 72 L 352 72 L 360 72 M 352 72 L 360 72 L 368 72 M 360 72 L 368 72 L 376 72 M 368 72 L 376 72 L 384 72 M 376 72 L 384 72 L 392 72 M 384 72 L 392 72 L 400 72 M 392 72 L 400 72 L 408 72 M 400 72 L 408 72 L 416 72 M 408 72 L 416 72 M 420 72 L 420 64 M 420 72 L 416 72 M 460 72 L 460 64 M 460 72 L 464 72 L 472 72 M 464 72 L 472 72 L 480 72 M 472 72 L 480 72 L 488 72 M 480 72 L 488 72 L 496 72 M 488 72 L 496 72 L 504 72 M 496 72 L 504 72 L 512 72 M 504 72 L 512 72 L 520 72 M 512 72 L 520 72 M 524 72 L 524 64 M 524 72 L 520 72 M 4 88 L 8 88 M 4 88 L 4 96 M 8 88 L 16 88 M 8 88 L 16 88 L 24 88 M 16 88 L 24 88 L 32 88 M 24 88 L 32 88 L 40 88 M 32 88 L 40 88 L 48 88 M 40 88 L 48 88 L 56 88 M 48 88 L 56 88 M 60 88 L 56 88 M 60 88 L 60 96 M 132 80 L 132 96 M 132 80 L 132 96 M 300 80 L 300 96 M 300 80 L 300 96 M 4 96 L 4 112 M 4 96 L 4 112 M 60 96 L 60 112 M 60 96 L 60 112 M 132 96 L 132 112 M 132 96 L 132 112 M 172 104 L 176 104 M 172 104 L 172 112 M 176 104 L 184 104 M 176 104 L 184 104 L 192 104 M 184 104 L 192 104 L 200 104 M 192 104 L 200 104 L 208 104 M 200 104 L 208 104 L 216 104 M 208 104 L 216 104 L 224 104 M 216 104 L 224 104 L 232 104 M 224 104 L 232 104 L 240 104 M 232 104 L 240 104 L 248 104 M 240 104 L 248 104 L 256 104 M 248 104 L 256 104 L 264 104 M 256 104 L 264 104 L 272 104 M 264 104 L 272 104 L 280 104 M 272 104 L 280 104 M 284 104 L 280 104 M 284 104 L 284 112 M 300 96 L 300 112 M 300 96 L 300 112 M 324 104 L 328 104 M 324 104 L 324 112 M 328 104 L 336 104 M 328 104 L 336 104 L 344 104 M 336 104 L 344 104 L 352 104 M 344 104 L 352 104 L 360 104 M 352 104 L 360 104 L 368 104 M 360 104 L 368 104 L 376 104 M 368 104 L 376 104 L 384 104 M 376 104 L 384 104 L 392 104 M 384 104 L 392 104 L 400 104 M 392 104 L 400 104 L 408 104 M 400 104 L 408 104 M 412 104 L 408 104 M 412 104 L 412 112 M 460 104 L 464 104 M 460 104 L 460 112 M 464 104 L 472 104 M 464 104 L 472 104 L 480 104 M 472 104 L 480 104 L 488 104 M 480 104 L 488 104 L 496 104 M 488 104 L 496 104 L 504 104 M 496 104 L 504 104 L 512 104 M 504 104 L 512 104 L 520 104 M 512 104 L 520 104 L 528 104 M 520 104 L 528 104 L 536 104 M 528 104 L 536 104 L 544 104 M 536 104 L 544 104 L 552 104 M 544 104 L 552 104 M 556 104 L 552 104 M 556 104 L 556 112 M 4 120 L 4 112 M 4 120 L 8 120 L 16 120 M 8 120 L 16 120 M 20 120 L 16 120 M 20 120 L 24 120 M 20 120 L 20 128 M 24 120 L 32 120 M 24 120 L 32 120 L 40 120 M 32 120 L 40 120 L 48 120 M 40 120 L 48 120 L 56 120 M 48 120 L 56 120 M 60 120 L 60 112 M 60 120 L 56 120 M 132 120 L 132 112 M 132 120 L 136 120 M 132 120 L 132 128 M 136 120 L 144 120 M 136 120 L 144 120 L 152 120 M 144 120 L 152 120 M 172 112 L 172 128 M 172 112 L 172 128 M 284 112 L 284 128 M 284 112 L 284 128 M 300 120 L 300 112 M 300 120 L 304 120 M 324 112 L 324 128 M 324 112 L 324 128 M 412 112 L 412 128 M 412 112 L 412 128 M 424 120 L 412 120 M 424 120 L 432 120 M 424 120 L 432 120 L 440 120 M 432 120 L 440 120 M 460 112 L 460 128 M 460 112 L 460 128 M 556 112 L 556 128 M 556 112 L 556 128 M 132 128 L 132 144 M 132 128 L 132 144 M 172 136 L 172 128 M 172 136 L 176 136 L 184 136 M 176 136 L 184 136 L 192 136 M 184 136 L 192 136 L 200 136 M 192 136 L 200 136 L 208 136 M 200 136 L 208 136 L 216 136 M 208 136 L 216 136 L 224 136 M 216 136 L 224 136 L 232 136 M 224 136 L 232 136 L 240 136 M 232 136 L 240 136 L 248 136 M 240 136 L 248 136 L 256 136 M 248 136 L 256 136 L 264 136 M 256 136 L 264 136 L 272 136 M 264 136 L 272 136 L 280 136 M 272 136 L 280 136 M 284 136 L 284 128 M 284 136 L 280 136 M 324 136 L 324 128 M 324 136 L 328 136 L 336 136 M 328 136 L 336 136 L 344 136 M 336 136 L 344 136 L 352 136 M 344 136 L 352 136 L 360 136 M 352 136 L 360 136 L 368 136 M 360 136 L 368 136 L 376 136 M 368 136 L 376 136 L 384 136 M 376 136 L 384 136 L 392 136 M 384 136 L 392 136 L 400 136 M 392 136 L 400 136 L 408 136 M 400 136 L 408 136 M 412 136 L 412 128 M 412 136 L 408 136 M 460 136 L 460 128 M 460 136 L 464 136 L 472 136 M 464 136 L 472 136 L 480 136 M 472 136 L 480 136 L 488 136 M 480 136 L 488 136 L 496 136 M 488 136 L 496 136 L 504 136 M 496 136 L 504 136 L 512 136 M 504 136 L 512 136 L 520 136 M 512 136 L 520 136 L 528 136 M 520 136 L 528 136 L 536 136 M 528 136 L 536 136 L 544 136 M 536 136 L 544 136 L 552 136 M 544 136 L 552 136 M 556 136 L 556 128 M 556 136 L 552 136 M 132 144 L 132 160 M 132 144 L 132 160 M 4 168 L 8 168 M 4 168 L 4 176 M 8 168 L 16 168 M 8 168 L 16 168 L 24 168 M 16 168 L 24 168 L 32 168 M 24 168 L 32 168 L 40 168 M 32 168 L 40 168 L 48 168 M 40 168 L 48 168 L 56 168 M 48 168 L 56 168 L 64 168 M 56 168 L 64 168 L 72 168 M 64 168 L 72 168 L 80 168 M 72 168 L 80 168 L 88 168 M 80 168 L 88 168 L 96 168 M 88 168 L 96 168 L 104 168 M 96 168 L 104 168 M 108 168 L 104 168 M 108 168 L 108 176 M 132 160 L 132 176 M 132 160 L 132 176 M 172 168 L 176 168 M 172 168 L 172 176 M 176 168 L 184 168 M 176 168 L 184 168 L 192 168 M 184 168 L 192 168 L 200 168 M 192 168 L 200 168 L 208 168 M 200 168 L 208 168 L 216 168 M 208 168 L 216 168 L 224 168 M 216 168 L 224 168 L 232 168 M 224 168 L 232 168 L 240 168 M 232 168 L 240 168 L 248 168 M 240 168 L 248 168 L 256 168 M 248 168 L 256 168 L 264 168 M 256 168 L 264 168 M 268 168 L 264 168 M 268 168 L 268 176 M 324 168 L 328 168 M 324 168 L 324 176 M 328 168 L 336 168 M 328 168 L 336 168 L 344 168 M 336 168 L 344 168 L 352 168 M 344 168 L 352 168 L 360 168 M 352 168 L 360 168 L 368 168 M 360 168 L 368 168 L 376 168 M 368 168 L 376 168 L 384 168 M 376 168 L 384 168 L 392 168 M 384 168 L 392 168 L 400 168 M 392 168 L 400 168 M 404 168 L 400 168 M 404 168 L 404 176 M 4 176 L 4 192 M 4 176 L 4 192 M 108 184 L 108 176 M 108 184 L 112 184 M 108 184 L 108 192 M 112 184 L 120 184 M 112 184 L 120 184 L 128 184 M 120 184 L 128 184 M 132 184 L 132 176 M 132 184 L 128 184 M 132 184 L 136 184 M 132 184 L 132 192 M 136 184 L 144 184 M 136 184 L 144 184 L 152 184 M 144 184 L 152 184 M 172 176 L 172 192 M 172 176 L 172 192 M 268 176 L 268 192 M 268 176 L 268 192 M 280 184 L 268 184 M 280 184 L 288 184 M 280 184 L 288 184 L 296 184 M 288 184 L 296 184 L 304 184 M 296 184 L 304 184 M 324 176 L 324 192 M 324 176 L 324 192 M 404 176 L 404 192 M 404 176 L 404 192 M 4 200 L 4 192 M 4 200 L 8 200 L 16 200 M 8 200 L 16 200 L 24 200 M 16 200 L 24 200 L 32 200 M 24 200 L 32 200 L 40 200 M 32 200 L 40 200 L 48 200 M 40 200 L 48 200 L 56 200 M 48 200 L 56 200 L 64 200 M 56 200 L 64 200 L 72 200 M 64 200 L 72 200 L 80 200 M 72 200 L 80 200 L 88 200 M 80 200 L 88 200 L 96 200 M 88 200 L 96 200 L 104 200 M 96 200 L 104 200 M 108 200 L 108 192 M 108 200 L 104 200 M 132 192 L 132 208 M 132 192 L 132 208 M 172 200 L 172 192 M 172 200 L 176 200 L 184 200 M 176 200 L 184 200 L 192 200 M 184 200 L 192 200 L 200 200 M 192 200 L 200 200 L 208 200 M 200 200 L 208 200 L 216 200 M 208 200 L 216 200 L 224 200 M 216 200 L 224 200 L 232 200 M 224 200 L 232 200 L 240 200 M 232 200 L 240 200 L 248 200 M 240 200 L 248 200 L 256 200 M 248 200 L 256 200 L 264 200 M 256 200 L 264 200 M 268 200 L 268 192 M 268 200 L 264 200 M 324 200 L 324 192 M 324 200 L 328 200 L 336 200 M 328 200 L 336 200 L 344 200 M 336 200 L 344 200 L 352 200 M 344 200 L 352 200 L 360 200 M 352 200 L 360 200 L 368 200 M 360 200 L 368 200 L 376 200 M 368 200 L 376 200 L 384 200 M 376 200 L 384 200 L 392 200 M 384 200 L 392 200 L 400 200 M 392 200 L 400 200 M 404 200 L 404 192 M 404 200 L 400 200 M 132 208 L 132 224 M 132 208 L 132 224 L 132 240 M 132 224 L 132 240 M 172 232 L 176 232 M 172 232 L 172 240 M 176 232 L 184 232 M 176 232 L 184 232 L 192 232 M 184 232 L 192 232 L 200 232 M 192 232 L 200 232 L 208 232 M 200 232 L 208 232 L 216 232 M 208 232 L 216 232 L 224 232 M 216 232 L 224 232 M 228 232 L 224 232 M 228 232 L 228 240 M 324 232 L 328 232 M 324 232 L 324 240 M 328 232 L 336 232 M 328 232 L 336 232 L 344 232 M 336 232 L 344 232 L 352 232 M 344 232 L 352 232 L 360 232 M 352 232 L 360 232 L 368 232 M 360 232 L 368 232 L 376 232 M 368 232 L 376 232 L 384 232 M 376 232 L 384 232 L 392 232 M 384 232 L 392 232 L 400 232 M 392 232 L 400 232 L 408 232 M 400 232 L 408 232 L 416 232 M 408 232 L 416 232 L 424 232 M 416 232 L 424 232 L 432 232 M 424 232 L 432 232 L 440 232 M 432 232 L 440 232 L 448 232 M 440 232 L 448 232 M 452 232 L 448 232 M 452 232 L 452 240 M 132 248 L 132 240 M 132 248 L 136 248 M 132 248 L 132 256 M 136 248 L 144 248 M 136 248 L 144 248 L 152 248 M 144 248 L 152 248 M 172 240 L 172 256 M 172 240 L 172 256 M 228 248 L 228 240 M 228 248 L 232 248 M 228 248 L 228 256 M 232 248 L 240 248 M 232 248 L 240 248 L 248 248 M 240 248 L 248 248 L 256 248 M 248 248 L 256 248 L 264 248 M 256 248 L 264 248 M 268 248 L 264 248 M 268 248 L 272 248 M 268 248 L 268 256 M 272 248 L 280 248 M 272 248 L 280 248 L 288 248 M 280 248 L 288 248 L 296 248 M 288 248 L 296 248 L 304 248 M 296 248 L 304 248 M 324 240 L 324 256 M 324 240 L 324 256 M 452 240 L 452 256 M 452 240 L 452 256 M 132 256 L 132 272 M 132 256 L 132 272 M 172 264 L 172 256 M 172 264 L 176 264 L 184 264 M 176 264 L 184 264 L 192 264 M 184 264 L 192 264 L 200 264 M 192 264 L 200 264 L 208 264 M 200 264 L 208 264 L 216 264 M 208 264 L 216 264 L 224 264 M 216 264 L 224 264 M 228 264 L 228 256 M 228 264 L 224 264 M 268 256 L 268 272 M 268 256 L 268 272 M 324 264 L 324 256 M 324 264 L 328 264 L 336 264 M 328 264 L 336 264 L 344 264 M 336 264 L 344 264 L 352 264 M 344 264 L 352 264 L 360 264 M 352 264 L 360 264 L 368 264 M 360 264 L 368 264 L 376 264 M 368 264 L 376 264 L 384 264 M 376 264 L 384 264 L 392 264 M 384 264 L 392 264 L 400 264 M 392 264 L 400 264 L 408 264 M 400 264 L 408 264 L 416 264 M 408 264 L 416 264 L 424 264 M 416 264 L 424 264 L 432 264 M 424 264 L 432 264 L 440 264 M 432 264 L 440 264 L 448 264 M 440 264 L 448 264 M 452 264 L 452 256 M 452 264 L 448 264 M 132 272 L 132 288 M 132 272 L 132 288 M 268 272 L 268 288 M 268 272 L 268 288 M 132 288 L 132 304 M 132 288 L 132 304 M 172 296 L 176 296 M 172 296 L 172 304 M 176 296 L 184 296 M 176 296 L 184 296 L 192 296 M 184 296 L 192 296 L 200 296 M 192 296 L 200 296 L 208 296 M 200 296 L 208 296 L 216 296 M 208 296 L 216 296 L 224 296 M 216 296 L 224 296 M 228 296 L 224 296 M 228 296 L 228 304 M 268 288 L 268 304 M 268 288 L 268 304 M 324 296 L 328 296 M 324 296 L 324 304 M 328 296 L 336 296 M 328 296 L 336 296 L 344 296 M 336 296 L 344 296 L 352 296 M 344 296 L 352 296 L 360 296 M 352 296 L 360 296 L 368 296 M 360 296 L 368 296 L 376 296 M 368 296 L 376 296 L 384 296 M 376 296 L 384 296 L 392 296 M 384 296 L 392 296 L 400 296 M 392 296 L 400 296 L 408 296 M 400 296 L 408 296 L 416 296 M 408 296 L 416 296 L 424 296 M 416 296 L 424 296 L 432 296 M 424 296 L 432 296 L 440 296 M 432 296 L 440 296 L 448 296 M 440 296 L 448 296 L 456 296 M 448 296 L 456 296 M 460 296 L 456 296 M 460 296 L 460 304 M 132 312 L 132 304 M 132 312 L 136 312 L 144 312 M 136 312 L 144 312 L 152 312 M 144 312 L 152 312 M 172 304 L 172 320 M 172 304 L 172 320 M 228 304 L 228 320 M 228 304 L 228 320 M 268 312 L 268 304 M 268 312 L 272 312 M 268 312 L 268 320 M 272 312 L 280 312 M 272 312 L 280 312 L 288 312 M 280 312 L 288 312 L 296 312 M 288 312 L 296 312 L 304 312 M 296 312 L 304 312 M 324 304 L 324 320 M 324 304 L 324 320 M 460 304 L 460 320 M 460 304 L 460 320 M 172 328 L 172 320 M 172 328 L 176 328 L 184 328 M 176 328 L 184 328 L 192 328 M 184 328 L 192 328 L 200 328 M 192 328 L 200 328 L 208 328 M 200 328 L 208 328 L 216 328 M 208 328 L 216 328 L 224 328 M 216 328 L 224 328 M 228 328 L 228 320 M 228 328 L 224 328 M 268 320 L 268 336 M 268 320 L 268 336 M 324 328 L 324 320 M 324 328 L 328 328 L 336 328 M 328 328 L 336 328 L 344 328 M 336 328 L 344 328 L 352 328 M 344 328 L 352 328 L 360 328 M 352 328 L 360 328 L 368 328 M 360 328 L 368 328 L 376 328 M 368 328 L 376 328 L 384 328 M 376 328 L 384 328 L 392 328 M 384 328 L 392 328 L 400 328 M 392 328 L 400 328 L 408 328 M 400 328 L 408 328 L 416 328 M 408 328 L 416 328 L 424 328 M 416 328 L 424 328 L 432 328 M 424 328 L 432 328 L 440 328 M 432 328 L 440 328 L 448 328 M 440 328 L 448 328 L 456 328 M 448 328 L 456 328 M 460 328 L 460 320 M 460 328 L 456 328 M 268 336 L 268 352 M 268 336 L 268 352 L 268 368 M 268 352 L 268 368 M 324 360 L 328 360 M 324 360 L 324 368 M 328 360 L 336 360 M 328 360 L 336 360 L 344 360 M 336 360 L 344 360 L 352 360 M 344 360 L 352 360 L 360 360 M 352 360 L 360 360 L 368 360 M 360 360 L 368 360 L 376 360 M 368 360 L 376 360 L 384 360 M 376 360 L 384 360 L 392 360 M 384 360 L 392 360 L 400 360 M 392 360 L 400 360 L 408 360 M 400 360 L 408 360 L 416 360 M 408 360 L 416 360 L 424 360 M 416 360 L 424 360 L 432 360 M 424 360 L 432 360 L 440 360 M 432 360 L 440 360 L 448 360 M 440 360 L 448 360 L 456 360 M 448 360 L 456 360 L 464 360 M 456 360 L 464 360 L 472 360 M 464 360 L 472 360 M 476 360 L 472 360 M 476 360 L 476 368 M 268 376 L 268 368 M 268 376 L 272 376 M 268 376 L 268 384 M 272 376 L 280 376 M 272 376 L 280 376 L 288 376 M 280 376 L 288 376 L 296 376 M 288 376 L 296 376 L 304 376 M 296 376 L 304 376 M 324 368 L 324 384 M 324 368 L 324 384 M 476 368 L 476 384 M 476 368 L 476 384 M 268 384 L 268 400 M 268 384 L 268 400 M 324 392 L 324 384 M 324 392 L 328 392 L 336 392 M 328 392 L 336 392 L 344 392 M 336 392 L 344 392 L 352 392 M 344 392 L 352 392 L 360 392 M 352 392 L 360 392 L 368 392 M 360 392 L 368 392 L 376 392 M 368 392 L 376 392 L 384 392 M 376 392 L 384 392 L 392 392 M 384 392 L 392 392 L 400 392 M 392 392 L 400 392 L 408 392 M 400 392 L 408 392 L 416 392 M 408 392 L 416 392 L 424 392 M 416 392 L 424 392 L 432 392 M 424 392 L 432 392 L 440 392 M 432 392 L 440 392 L 448 392 M 440 392 L 448 392 L 456 392 M 448 392 L 456 392 L 464 392 M 456 392 L 464 392 L 472 392 M 464 392 L 472 392 M 476 392 L 476 384 M 476 392 L 472 392 M 268 400 L 268 416 M 268 400 L 268 416 L 268 432 M 268 416 L 268 432 M 324 424 L 328 424 M 324 424 L 324 432 M 328 424 L 336 424 M 328 424 L 336 424 L 344 424 M 336 424 L 344 424 L 352 424 M 344 424 L 352 424 L 360 424 M 352 424 L 360 424 L 368 424 M 360 424 L 368 424 L 376 424 M 368 424 L 376 424 L 384 424 M 376 424 L 384 424 L 392 424 M 384 424 L 392 424 L 400 424 M 392 424 L 400 424 L 408 424 M 400 424 L 408 424 L 416 424 M 408 424 L 416 424 L 424 424 M 416 424 L 424 424 L 432 424 M 424 424 L 432 424 L 440 424 M 432 424 L 440 424 L 448 424 M 440 424 L 448 424 M 452 424 L 448 424 M 452 424 L 452 432 M 268 440 L 268 432 M 268 440 L 272 440 M 268 440 L 268 448 M 272 440 L 280 440 M 272 440 L 280 440 L 288 440 M 280 440 L 288 440 L 296 440 M 288 440 L 296 440 L 304 440 M 296 440 L 304 440 M 324 432 L 324 448 M 324 432 L 324 448 M 452 432 L 452 448 M 452 432 L 452 448 M 268 448 L 268 464 M 268 448 L 268 464 M 324 456 L 324 448 M 324 456 L 328 456 L 336 456 M 328 456 L 336 456 L 344 456 M 336 456 L 344 456 L 352 456 M 344 456 L 352 456 L 360 456 M 352 456 L 360 456 L 368 456 M 360 456 L 368 456 L 376 456 M 368 456 L 376 456 L 384 456 M 376 456 L 384 456 L 392 456 M 384 456 L 392 456 L 400 456 M 392 456 L 400 456 L 408 456 M 400 456 L 408 456 L 416 456 M 408 456 L 416 456 L 424 456 M 416 456 L 424 456 L 432 456 M 424 456 L 432 456 L 440 456 M 432 456 L 440 456 L 448 456 M 440 456 L 448 456 M 452 456 L 452 448 M 452 456 L 448 456 M 268 464 L 268 480 M 268 464 L 268 480 L 268 496 M 268 480 L 268 496 M 324 488 L 328 488 M 324 488 L 324 496 M 328 488 L 336 488 M 328 488 L 336 488 L 344 488 M 336 488 L 344 488 L 352 488 M 344 488 L 352 488 L 360 488 M 352 488 L 360 488 L 368 488 M 360 488 L 368 488 L 376 488 M 368 488 L 376 488 L 384 488 M 376 488 L 384 488 L 392 488 M 384 488 L 392 488 L 400 488 M 392 488 L 400 488 L 408 488 M 400 488 L 408 488 L 416 488 M 408 488 L 416 488 L 424 488 M 416 488 L 424 488 L 432 488 M 424 488 L 432 488 L 440 488 M 432 488 L 440 488 M 444 488 L 440 488 M 444 488 L 444 496 M 268 504 L 268 496 M 268 504 L 272 504 L 280 504 M 272 504 L 280 504 L 288 504 M 280 504 L 288 504 L 296 504 M 288 504 L 296 504 L 304 504 M 296 504 L 304 504 M 324 496 L 324 512 M 324 496 L 324 512 M 444 496 L 444 512 M 444 496 L 444 512 M 324 520 L 324 512 M 324 520 L 328 520 L 336 520 M 328 520 L 336 520 L 344 520 M 336 520 L 344 520 L 352 520 M 344 520 L 352 520 L 360 520 M 352 520 L 360 520 L 368 520 M 360 520 L 368 520 L 376 520 M 368 520 L 376 520 L 384 520 M 376 520 L 384 520 L 392 520 M 384 520 L 392 520 L 400 520 M 392 520 L 400 520 L 408 520 M 400 520 L 408 520 L 416 520 M 408 520 L 416 520 L 424 520 M 416 520 L 424 520 L 432 520 M 424 520 L 432 520 L 440 520 M 432 520 L 440 520 M 444 520 L 444 512 M 444 520 L 440 520" fill="none"/>
<path d="" fill="none" stroke-dasharray="3 3"/>
<line marker-end="url(#triangle)" x1="20" x2="20" y1="48" y2="76"/>
<line marker-end="url(#triangle)" x1="20" x2="20" y1="48" y2="76"/>
<line marker-end="url(#triangle)" x1="152" x2="164" y1="56" y2="56"/>
<line marker-end="url(#triangle)" x1="152" x2="164" y1="56" y2="56"/>
<line marker-end="url(#triangle)" x1="160" x2="164" y1="56" y2="56"/>
<line marker-end="url(#triangle)" x1="304" x2="316" y1="56" y2="56"/>
<line marker-end="url(#triangle)" x1="304" x2="316" y1="56" y2="56"/>
<line marker-end="url(#triangle)" x1="312" x2="316" y1="56" y2="56"/>
<line marker-end="url(#triangle)" x1="440" x2="452" y1="56" y2="56"/>
<line marker-end="url(#triangle)" x1="440" x2="452" y1="56" y2="56"/>
<line marker-end="url(#triangle)" x1="448" x2="452" y1="56" y2="56"/>
<line marker-end="url(#triangle)" x1="20" x2="20" y1="64" y2="76"/>
<line marker-end="url(#triangle)" x1="152" x2="164" y1="120" y2="120"/>
<line marker-end="url(#triangle)" x1="152" x2="164" y1="120" y2="120"/>
<line marker-end="url(#triangle)" x1="160" x2="164" y1="120" y2="120"/>
<line marker-end="url(#triangle)" x1="304" x2="316" y1="120" y2="120"/>
<line marker-end="url(#triangle)" x1="304" x2="316" y1="120" y2="120"/>
<line marker-end="url(#triangle)" x1="312" x2="316" y1="120" y2="120"/>
<line marker-end="url(#triangle)" x1="440" x2="452" y1="120" y2="120"/>
<line marker-end="url(#triangle)" x1="440" x2="452" y1="120" y2="120"/>
<line marker-end="url(#triangle)" x1="448" x2="452" y1="120" y2="120"/>
<line marker-end="url(#triangle)" x1="20" x2="20" y1="128" y2="156"/>
<line marker-end="url(#triangle)" x1="20" x2="20" y1="128" y2="156"/>
<line marker-end="url(#triangle)" x1="20" x2="20" y1="144" y2="156"/>
<line marker-end="url(#triangle)" x1="152" x2="164" y1="184" y2="184"/>
<line marker-end="url(#triangle)" x1="152" x2="164" y1="184" y2="184"/>
<line marker-end="url(#triangle)" x1="160" x2="164" y1="184" y2="184"/>
<line marker-end="url(#triangle)" x1="304" x2="316" y1="184" y2="184"/>
<line marker-end="url(#triangle)" x1="304" x2="316" y1="184" y2="184"/>
<line marker-end="url(#triangle)" x1="312" x2="316" y1="184" y2="184"/>
<line marker-end="url(#triangle)" x1="152" x2="164" y1="248" y2="248"/>
<line marker-end="url(#triangle)" x1="152" x2="164" y1="248" y2="248"/>
<line marker-end="url(#triangle)" x1="160" x2="164" y1="248" y2="248"/>
<line marker-end="url(#triangle)" x1="304" x2="316" y1="248" y2="248"/>
<line marker-end="url(#triangle)" x1="304" x2="316" y1="248" y2="248"/>
<line marker-end="url(#triangle)" x1="312" x2="316" y1="248" y2="248"/>
<line marker-end="url(#triangle)" x1="152" x2="164" y1="312" y2="312"/>
<line marker-end="url(#triangle)" x1="152" x2="164" y1="312" y2="312"/>
<line marker-end="url(#triangle)" x1="160" x2="164" y1="312" y2="312"/>
<line marker-end="url(#triangle)" x1="304" x2="316" y1="312" y2="312"/>
<line marker-end="url(#triangle)" x1="304" x2="316" y1="312" y2="312"/>
<line marker-end="url(#triangle)" x1="312" x2="316" y1="312" y2="312"/>
<line marker-end="url(#triangle)" x1="304" x2="316" y1="376" y2="376"/>
<line marker-end="url(#triangle)" x1="304" x2="316" y1="376" y2="376"/>
<line marker-end="url(#triangle)" x1="312" x2="316" y1="376" y2="376"/>
<line marker-end="url(#triangle)" x1="304" x2="316" y1="440" y2="440"/>
<line marker-end="url(#triangle)" x1="304" x2="316" y1="440" y2="440"/>
<line marker-end="url(#triangle)" x1="312" x2="316" y1="440" y2="440"/>
<line marker-end="url(#triangle)" x1="304" x2="316" y1="504" y2="504"/>
<line marker-end="url(#triangle)" x1="304" x2="316" y1="504" y2="504"/>
<line marker-end="url(#triangle)" x1="312" x2="316" y1="504" y2="504"/>
<text x="17" y="28">
lib.rs
</text>
<text x="185" y="60">
PPU
</text>
<text x="337" y="60">
Registers
</text>
<text x="473" y="60">
VRAM
</text>
<text x="17" y="108">
CPU
</text>
<text x="185" y="124">
Controllers
</text>
<text x="337" y="124">
Renderer
</text>
<text x="473" y="124">
Addresses
</text>
<text x="17" y="188">
System
</text>
<text x="73" y="188">
Bus
</text>
<text x="185" y="188">
Cartridge
</text>
<text x="337" y="188">
Mappers
</text>
<text x="185" y="252">
APU
</text>
<text x="337" y="252">
Frame
</text>
<text x="385" y="252">
Counter
</text>
<text x="185" y="316">
RAM
</text>
<text x="337" y="316">
Pulse
</text>
<text x="385" y="316">
Channels
</text>
<text x="337" y="380">
Triangle
</text>
<text x="409" y="380">
Channel
</text>
<text x="337" y="444">
Noise
</text>
<text x="385" y="444">
Channel
</text>
<text x="337" y="508">
DMC
</text>
<text x="377" y="508">
Channel
</text>
</svg>
